<mxfile host="app.diagrams.net" agent="Mozilla/5.0 (Windows NT 10.0; Win64; x64) AppleWebKit/537.36 (KHTML, like Gecko) Chrome/131.0.0.0 Safari/537.36 OPR/116.0.0.0" version="26.0.16">
  <diagram name="Page-1" id="03018318-947c-dd8e-b7a3-06fadd420f32">
    <mxGraphModel dx="3149" dy="2836" grid="1" gridSize="10" guides="1" tooltips="1" connect="1" arrows="1" fold="1" page="1" pageScale="1" pageWidth="1100" pageHeight="850" background="#ffffff" math="0" shadow="0">
      <root>
        <mxCell id="0" />
        <mxCell id="1" parent="0" />
        <mxCell id="_zSwTG5S_GAaZdEpA28d-1" value="&lt;div style=&quot;text-align: justify&quot;&gt;&lt;br&gt;&lt;/div&gt;" style="whiteSpace=wrap;html=1;rounded=0;shadow=0;labelBackgroundColor=none;strokeWidth=1;fillColor=none;fontFamily=Verdana;fontSize=12;align=center;verticalAlign=top;spacing=10;comic=1;" vertex="1" parent="1">
          <mxGeometry x="-760" y="-1000" width="1520" height="960" as="geometry" />
        </mxCell>
        <mxCell id="677b7b8949515195-2" value="&lt;font style=&quot;font-size: 48px;&quot;&gt;LOGO&lt;/font&gt;" style="whiteSpace=wrap;html=1;rounded=0;shadow=0;labelBackgroundColor=none;strokeWidth=1;fontFamily=Verdana;fontSize=28;align=center;comic=1;rotation=0;" parent="1" vertex="1">
          <mxGeometry x="-115" y="-980" width="230" height="75" as="geometry" />
        </mxCell>
        <mxCell id="677b7b8949515195-26" value="&lt;font style=&quot;font-size: 16px;&quot;&gt;https://www.......&lt;/font&gt;" style="whiteSpace=wrap;html=1;rounded=0;shadow=0;labelBackgroundColor=none;strokeWidth=1;fillColor=none;fontFamily=Verdana;fontSize=12;align=center;comic=1;rotation=0;" parent="1" vertex="1">
          <mxGeometry x="-720" y="-590" width="290" height="60" as="geometry" />
        </mxCell>
        <mxCell id="677b7b8949515195-44" value="&lt;font style=&quot;font-size: 36px;&quot;&gt;Slogan goes here&lt;/font&gt;" style="text;html=1;points=[];align=left;verticalAlign=top;spacingTop=-4;fontSize=14;fontFamily=Verdana" parent="1" vertex="1">
          <mxGeometry x="-160" y="-860" width="320" height="50" as="geometry" />
        </mxCell>
        <mxCell id="_zSwTG5S_GAaZdEpA28d-8" value="&lt;div style=&quot;text-align: justify&quot;&gt;&lt;br&gt;&lt;/div&gt;" style="whiteSpace=wrap;html=1;rounded=0;shadow=0;labelBackgroundColor=none;strokeWidth=1;fillColor=none;fontFamily=Verdana;fontSize=12;align=center;verticalAlign=top;spacing=10;comic=1;" vertex="1" parent="1">
          <mxGeometry x="-965" y="-1040" width="1920" height="1080" as="geometry" />
        </mxCell>
        <mxCell id="_zSwTG5S_GAaZdEpA28d-10" value="&lt;font style=&quot;font-size: 36px;&quot;&gt;Your shortened links&lt;/font&gt;" style="text;whiteSpace=wrap;html=1;" vertex="1" parent="1">
          <mxGeometry x="-165" y="-750" width="330" height="40" as="geometry" />
        </mxCell>
        <mxCell id="_zSwTG5S_GAaZdEpA28d-11" value="&lt;div style=&quot;text-align: justify&quot;&gt;&lt;br&gt;&lt;/div&gt;" style="whiteSpace=wrap;html=1;rounded=0;shadow=0;labelBackgroundColor=none;strokeWidth=1;fillColor=none;fontFamily=Verdana;fontSize=12;align=center;verticalAlign=top;spacing=10;comic=1;" vertex="1" parent="1">
          <mxGeometry x="-740" y="-690" width="1480" height="630" as="geometry" />
        </mxCell>
        <mxCell id="_zSwTG5S_GAaZdEpA28d-12" value="&lt;div style=&quot;&quot;&gt;&lt;font style=&quot;font-size: 18px;&quot;&gt;&amp;nbsp; &amp;nbsp; &amp;nbsp; &amp;nbsp;Original link&amp;nbsp; &amp;nbsp; &amp;nbsp; &amp;nbsp; &amp;nbsp; &amp;nbsp; &amp;nbsp; &amp;nbsp; &amp;nbsp; &amp;nbsp; &amp;nbsp; &amp;nbsp; &amp;nbsp;Shortened link&amp;nbsp; &amp;nbsp; &amp;nbsp; &amp;nbsp; &amp;nbsp; &amp;nbsp; &amp;nbsp; &amp;nbsp; &amp;nbsp; &amp;nbsp; &amp;nbsp; &amp;nbsp; &amp;nbsp; &amp;nbsp; &amp;nbsp;Time of shortened&amp;nbsp; &amp;nbsp; &amp;nbsp; &amp;nbsp; &amp;nbsp; &amp;nbsp; &amp;nbsp; &amp;nbsp; &amp;nbsp;Num of transitions&amp;nbsp; &amp;nbsp; &amp;nbsp; &amp;nbsp; &amp;nbsp; &amp;nbsp; &amp;nbsp; &amp;nbsp;Time of transitions&amp;nbsp;&lt;/font&gt;&lt;/div&gt;" style="whiteSpace=wrap;html=1;rounded=0;shadow=0;labelBackgroundColor=none;strokeWidth=1;fillColor=none;fontFamily=Verdana;fontSize=12;align=center;verticalAlign=top;spacing=10;comic=1;" vertex="1" parent="1">
          <mxGeometry x="-730" y="-670" width="1460" height="50" as="geometry" />
        </mxCell>
        <mxCell id="_zSwTG5S_GAaZdEpA28d-13" value="" style="line;strokeWidth=1;html=1;rounded=0;shadow=0;labelBackgroundColor=none;fillColor=none;fontFamily=Verdana;fontSize=14;fontColor=#000000;align=center;comic=1;" vertex="1" parent="1">
          <mxGeometry x="-740" y="-515" width="1480" height="10" as="geometry" />
        </mxCell>
        <mxCell id="_zSwTG5S_GAaZdEpA28d-14" value="&lt;span style=&quot;background-color: transparent; color: light-dark(rgb(0, 0, 0), rgb(255, 255, 255));&quot;&gt;&lt;font style=&quot;font-size: 16px;&quot;&gt;http://localhost:8000/.......&lt;/font&gt;&lt;/span&gt;" style="whiteSpace=wrap;html=1;rounded=0;shadow=0;labelBackgroundColor=none;strokeWidth=1;fillColor=none;fontFamily=Verdana;fontSize=12;align=center;comic=1;rotation=0;" vertex="1" parent="1">
          <mxGeometry x="-405" y="-590" width="290" height="60" as="geometry" />
        </mxCell>
        <mxCell id="_zSwTG5S_GAaZdEpA28d-15" value="&lt;span style=&quot;background-color: transparent; color: light-dark(rgb(0, 0, 0), rgb(255, 255, 255));&quot;&gt;&lt;font style=&quot;font-size: 16px;&quot;&gt;hh:mm, dd,mm,yyyy&lt;/font&gt;&lt;/span&gt;" style="whiteSpace=wrap;html=1;rounded=0;shadow=0;labelBackgroundColor=none;strokeWidth=1;fillColor=none;fontFamily=Verdana;fontSize=12;align=center;comic=1;rotation=0;" vertex="1" parent="1">
          <mxGeometry x="-100" y="-590" width="290" height="60" as="geometry" />
        </mxCell>
        <mxCell id="_zSwTG5S_GAaZdEpA28d-16" value="&lt;span style=&quot;background-color: transparent; color: light-dark(rgb(0, 0, 0), rgb(255, 255, 255));&quot;&gt;&lt;font style=&quot;font-size: 16px;&quot;&gt;N&lt;/font&gt;&lt;/span&gt;" style="whiteSpace=wrap;html=1;rounded=0;shadow=0;labelBackgroundColor=none;strokeWidth=1;fillColor=none;fontFamily=Verdana;fontSize=12;align=center;comic=1;rotation=0;" vertex="1" parent="1">
          <mxGeometry x="260" y="-590" width="100" height="60" as="geometry" />
        </mxCell>
        <mxCell id="_zSwTG5S_GAaZdEpA28d-17" value="&lt;span style=&quot;background-color: transparent; color: light-dark(rgb(0, 0, 0), rgb(255, 255, 255));&quot;&gt;&lt;font style=&quot;font-size: 16px;&quot;&gt;hh:mm, dd,mm,yyyy&lt;/font&gt;&lt;/span&gt;&lt;div&gt;&lt;span style=&quot;font-size: 16px;&quot;&gt;hh:mm, dd,mm,yyyy&lt;/span&gt;&lt;span style=&quot;background-color: transparent; color: light-dark(rgb(0, 0, 0), rgb(255, 255, 255));&quot;&gt;&lt;font style=&quot;font-size: 16px;&quot;&gt;&lt;/font&gt;&lt;/span&gt;&lt;/div&gt;&lt;div&gt;&lt;span style=&quot;font-size: 16px;&quot;&gt;hh:mm, dd,mm,yyyy&lt;/span&gt;&lt;span style=&quot;font-size: 16px;&quot;&gt;&lt;/span&gt;&lt;/div&gt;" style="whiteSpace=wrap;html=1;rounded=0;shadow=0;labelBackgroundColor=none;strokeWidth=1;fillColor=none;fontFamily=Verdana;fontSize=12;align=center;comic=1;rotation=0;" vertex="1" parent="1">
          <mxGeometry x="430" y="-590" width="290" height="60" as="geometry" />
        </mxCell>
        <mxCell id="_zSwTG5S_GAaZdEpA28d-70" value="&lt;font style=&quot;font-size: 16px;&quot;&gt;https://www.......&lt;/font&gt;" style="whiteSpace=wrap;html=1;rounded=0;shadow=0;labelBackgroundColor=none;strokeWidth=1;fillColor=none;fontFamily=Verdana;fontSize=12;align=center;comic=1;rotation=0;" vertex="1" parent="1">
          <mxGeometry x="-720" y="-490" width="290" height="60" as="geometry" />
        </mxCell>
        <mxCell id="_zSwTG5S_GAaZdEpA28d-71" value="" style="line;strokeWidth=1;html=1;rounded=0;shadow=0;labelBackgroundColor=none;fillColor=none;fontFamily=Verdana;fontSize=14;fontColor=#000000;align=center;comic=1;" vertex="1" parent="1">
          <mxGeometry x="-740" y="-415" width="1480" height="10" as="geometry" />
        </mxCell>
        <mxCell id="_zSwTG5S_GAaZdEpA28d-72" value="&lt;span style=&quot;background-color: transparent; color: light-dark(rgb(0, 0, 0), rgb(255, 255, 255));&quot;&gt;&lt;font style=&quot;font-size: 16px;&quot;&gt;http://localhost:8000/.......&lt;/font&gt;&lt;/span&gt;" style="whiteSpace=wrap;html=1;rounded=0;shadow=0;labelBackgroundColor=none;strokeWidth=1;fillColor=none;fontFamily=Verdana;fontSize=12;align=center;comic=1;rotation=0;" vertex="1" parent="1">
          <mxGeometry x="-405" y="-490" width="290" height="60" as="geometry" />
        </mxCell>
        <mxCell id="_zSwTG5S_GAaZdEpA28d-73" value="&lt;span style=&quot;background-color: transparent; color: light-dark(rgb(0, 0, 0), rgb(255, 255, 255));&quot;&gt;&lt;font style=&quot;font-size: 16px;&quot;&gt;hh:mm, dd,mm,yyyy&lt;/font&gt;&lt;/span&gt;" style="whiteSpace=wrap;html=1;rounded=0;shadow=0;labelBackgroundColor=none;strokeWidth=1;fillColor=none;fontFamily=Verdana;fontSize=12;align=center;comic=1;rotation=0;" vertex="1" parent="1">
          <mxGeometry x="-100" y="-490" width="290" height="60" as="geometry" />
        </mxCell>
        <mxCell id="_zSwTG5S_GAaZdEpA28d-74" value="&lt;span style=&quot;background-color: transparent; color: light-dark(rgb(0, 0, 0), rgb(255, 255, 255));&quot;&gt;&lt;font style=&quot;font-size: 16px;&quot;&gt;N&lt;/font&gt;&lt;/span&gt;" style="whiteSpace=wrap;html=1;rounded=0;shadow=0;labelBackgroundColor=none;strokeWidth=1;fillColor=none;fontFamily=Verdana;fontSize=12;align=center;comic=1;rotation=0;" vertex="1" parent="1">
          <mxGeometry x="260" y="-490" width="100" height="60" as="geometry" />
        </mxCell>
        <mxCell id="_zSwTG5S_GAaZdEpA28d-75" value="&lt;span style=&quot;background-color: transparent; color: light-dark(rgb(0, 0, 0), rgb(255, 255, 255));&quot;&gt;&lt;font style=&quot;font-size: 16px;&quot;&gt;hh:mm, dd,mm,yyyy&lt;/font&gt;&lt;/span&gt;&lt;div&gt;&lt;span style=&quot;font-size: 16px;&quot;&gt;hh:mm, dd,mm,yyyy&lt;/span&gt;&lt;span style=&quot;background-color: transparent; color: light-dark(rgb(0, 0, 0), rgb(255, 255, 255));&quot;&gt;&lt;font style=&quot;font-size: 16px;&quot;&gt;&lt;/font&gt;&lt;/span&gt;&lt;/div&gt;&lt;div&gt;&lt;span style=&quot;font-size: 16px;&quot;&gt;hh:mm, dd,mm,yyyy&lt;/span&gt;&lt;span style=&quot;font-size: 16px;&quot;&gt;&lt;/span&gt;&lt;/div&gt;" style="whiteSpace=wrap;html=1;rounded=0;shadow=0;labelBackgroundColor=none;strokeWidth=1;fillColor=none;fontFamily=Verdana;fontSize=12;align=center;comic=1;rotation=0;" vertex="1" parent="1">
          <mxGeometry x="430" y="-490" width="290" height="60" as="geometry" />
        </mxCell>
        <mxCell id="_zSwTG5S_GAaZdEpA28d-76" value="&lt;font style=&quot;font-size: 16px;&quot;&gt;https://www.......&lt;/font&gt;" style="whiteSpace=wrap;html=1;rounded=0;shadow=0;labelBackgroundColor=none;strokeWidth=1;fillColor=none;fontFamily=Verdana;fontSize=12;align=center;comic=1;rotation=0;" vertex="1" parent="1">
          <mxGeometry x="-720" y="-390" width="290" height="60" as="geometry" />
        </mxCell>
        <mxCell id="_zSwTG5S_GAaZdEpA28d-77" value="" style="line;strokeWidth=1;html=1;rounded=0;shadow=0;labelBackgroundColor=none;fillColor=none;fontFamily=Verdana;fontSize=14;fontColor=#000000;align=center;comic=1;" vertex="1" parent="1">
          <mxGeometry x="-740" y="-315" width="1480" height="10" as="geometry" />
        </mxCell>
        <mxCell id="_zSwTG5S_GAaZdEpA28d-78" value="&lt;span style=&quot;background-color: transparent; color: light-dark(rgb(0, 0, 0), rgb(255, 255, 255));&quot;&gt;&lt;font style=&quot;font-size: 16px;&quot;&gt;http://localhost:8000/.......&lt;/font&gt;&lt;/span&gt;" style="whiteSpace=wrap;html=1;rounded=0;shadow=0;labelBackgroundColor=none;strokeWidth=1;fillColor=none;fontFamily=Verdana;fontSize=12;align=center;comic=1;rotation=0;" vertex="1" parent="1">
          <mxGeometry x="-405" y="-390" width="290" height="60" as="geometry" />
        </mxCell>
        <mxCell id="_zSwTG5S_GAaZdEpA28d-79" value="&lt;span style=&quot;background-color: transparent; color: light-dark(rgb(0, 0, 0), rgb(255, 255, 255));&quot;&gt;&lt;font style=&quot;font-size: 16px;&quot;&gt;hh:mm, dd,mm,yyyy&lt;/font&gt;&lt;/span&gt;" style="whiteSpace=wrap;html=1;rounded=0;shadow=0;labelBackgroundColor=none;strokeWidth=1;fillColor=none;fontFamily=Verdana;fontSize=12;align=center;comic=1;rotation=0;" vertex="1" parent="1">
          <mxGeometry x="-100" y="-390" width="290" height="60" as="geometry" />
        </mxCell>
        <mxCell id="_zSwTG5S_GAaZdEpA28d-80" value="&lt;span style=&quot;background-color: transparent; color: light-dark(rgb(0, 0, 0), rgb(255, 255, 255));&quot;&gt;&lt;font style=&quot;font-size: 16px;&quot;&gt;N&lt;/font&gt;&lt;/span&gt;" style="whiteSpace=wrap;html=1;rounded=0;shadow=0;labelBackgroundColor=none;strokeWidth=1;fillColor=none;fontFamily=Verdana;fontSize=12;align=center;comic=1;rotation=0;" vertex="1" parent="1">
          <mxGeometry x="260" y="-390" width="100" height="60" as="geometry" />
        </mxCell>
        <mxCell id="_zSwTG5S_GAaZdEpA28d-81" value="&lt;span style=&quot;background-color: transparent; color: light-dark(rgb(0, 0, 0), rgb(255, 255, 255));&quot;&gt;&lt;font style=&quot;font-size: 16px;&quot;&gt;hh:mm, dd,mm,yyyy&lt;/font&gt;&lt;/span&gt;&lt;div&gt;&lt;span style=&quot;font-size: 16px;&quot;&gt;hh:mm, dd,mm,yyyy&lt;/span&gt;&lt;span style=&quot;background-color: transparent; color: light-dark(rgb(0, 0, 0), rgb(255, 255, 255));&quot;&gt;&lt;font style=&quot;font-size: 16px;&quot;&gt;&lt;/font&gt;&lt;/span&gt;&lt;/div&gt;&lt;div&gt;&lt;span style=&quot;font-size: 16px;&quot;&gt;hh:mm, dd,mm,yyyy&lt;/span&gt;&lt;span style=&quot;font-size: 16px;&quot;&gt;&lt;/span&gt;&lt;/div&gt;" style="whiteSpace=wrap;html=1;rounded=0;shadow=0;labelBackgroundColor=none;strokeWidth=1;fillColor=none;fontFamily=Verdana;fontSize=12;align=center;comic=1;rotation=0;" vertex="1" parent="1">
          <mxGeometry x="430" y="-390" width="290" height="60" as="geometry" />
        </mxCell>
        <mxCell id="_zSwTG5S_GAaZdEpA28d-82" value="&lt;font style=&quot;font-size: 16px;&quot;&gt;https://www.......&lt;/font&gt;" style="whiteSpace=wrap;html=1;rounded=0;shadow=0;labelBackgroundColor=none;strokeWidth=1;fillColor=none;fontFamily=Verdana;fontSize=12;align=center;comic=1;rotation=0;" vertex="1" parent="1">
          <mxGeometry x="-720" y="-290" width="290" height="60" as="geometry" />
        </mxCell>
        <mxCell id="_zSwTG5S_GAaZdEpA28d-83" value="" style="line;strokeWidth=1;html=1;rounded=0;shadow=0;labelBackgroundColor=none;fillColor=none;fontFamily=Verdana;fontSize=14;fontColor=#000000;align=center;comic=1;" vertex="1" parent="1">
          <mxGeometry x="-740" y="-215" width="1480" height="10" as="geometry" />
        </mxCell>
        <mxCell id="_zSwTG5S_GAaZdEpA28d-84" value="&lt;span style=&quot;background-color: transparent; color: light-dark(rgb(0, 0, 0), rgb(255, 255, 255));&quot;&gt;&lt;font style=&quot;font-size: 16px;&quot;&gt;http://localhost:8000/.......&lt;/font&gt;&lt;/span&gt;" style="whiteSpace=wrap;html=1;rounded=0;shadow=0;labelBackgroundColor=none;strokeWidth=1;fillColor=none;fontFamily=Verdana;fontSize=12;align=center;comic=1;rotation=0;" vertex="1" parent="1">
          <mxGeometry x="-405" y="-290" width="290" height="60" as="geometry" />
        </mxCell>
        <mxCell id="_zSwTG5S_GAaZdEpA28d-85" value="&lt;span style=&quot;background-color: transparent; color: light-dark(rgb(0, 0, 0), rgb(255, 255, 255));&quot;&gt;&lt;font style=&quot;font-size: 16px;&quot;&gt;hh:mm, dd,mm,yyyy&lt;/font&gt;&lt;/span&gt;" style="whiteSpace=wrap;html=1;rounded=0;shadow=0;labelBackgroundColor=none;strokeWidth=1;fillColor=none;fontFamily=Verdana;fontSize=12;align=center;comic=1;rotation=0;" vertex="1" parent="1">
          <mxGeometry x="-100" y="-290" width="290" height="60" as="geometry" />
        </mxCell>
        <mxCell id="_zSwTG5S_GAaZdEpA28d-86" value="&lt;span style=&quot;background-color: transparent; color: light-dark(rgb(0, 0, 0), rgb(255, 255, 255));&quot;&gt;&lt;font style=&quot;font-size: 16px;&quot;&gt;N&lt;/font&gt;&lt;/span&gt;" style="whiteSpace=wrap;html=1;rounded=0;shadow=0;labelBackgroundColor=none;strokeWidth=1;fillColor=none;fontFamily=Verdana;fontSize=12;align=center;comic=1;rotation=0;" vertex="1" parent="1">
          <mxGeometry x="260" y="-290" width="100" height="60" as="geometry" />
        </mxCell>
        <mxCell id="_zSwTG5S_GAaZdEpA28d-87" value="&lt;span style=&quot;background-color: transparent; color: light-dark(rgb(0, 0, 0), rgb(255, 255, 255));&quot;&gt;&lt;font style=&quot;font-size: 16px;&quot;&gt;hh:mm, dd,mm,yyyy&lt;/font&gt;&lt;/span&gt;&lt;div&gt;&lt;span style=&quot;font-size: 16px;&quot;&gt;hh:mm, dd,mm,yyyy&lt;/span&gt;&lt;span style=&quot;background-color: transparent; color: light-dark(rgb(0, 0, 0), rgb(255, 255, 255));&quot;&gt;&lt;font style=&quot;font-size: 16px;&quot;&gt;&lt;/font&gt;&lt;/span&gt;&lt;/div&gt;&lt;div&gt;&lt;span style=&quot;font-size: 16px;&quot;&gt;hh:mm, dd,mm,yyyy&lt;/span&gt;&lt;span style=&quot;font-size: 16px;&quot;&gt;&lt;/span&gt;&lt;/div&gt;" style="whiteSpace=wrap;html=1;rounded=0;shadow=0;labelBackgroundColor=none;strokeWidth=1;fillColor=none;fontFamily=Verdana;fontSize=12;align=center;comic=1;rotation=0;" vertex="1" parent="1">
          <mxGeometry x="430" y="-290" width="290" height="60" as="geometry" />
        </mxCell>
        <mxCell id="_zSwTG5S_GAaZdEpA28d-88" value="&lt;font style=&quot;font-size: 16px;&quot;&gt;https://www.......&lt;/font&gt;" style="whiteSpace=wrap;html=1;rounded=0;shadow=0;labelBackgroundColor=none;strokeWidth=1;fillColor=none;fontFamily=Verdana;fontSize=12;align=center;comic=1;rotation=0;" vertex="1" parent="1">
          <mxGeometry x="-720" y="-190" width="290" height="60" as="geometry" />
        </mxCell>
        <mxCell id="_zSwTG5S_GAaZdEpA28d-89" value="" style="line;strokeWidth=1;html=1;rounded=0;shadow=0;labelBackgroundColor=none;fillColor=none;fontFamily=Verdana;fontSize=14;fontColor=#000000;align=center;comic=1;" vertex="1" parent="1">
          <mxGeometry x="-740" y="-115" width="1480" height="10" as="geometry" />
        </mxCell>
        <mxCell id="_zSwTG5S_GAaZdEpA28d-90" value="&lt;span style=&quot;background-color: transparent; color: light-dark(rgb(0, 0, 0), rgb(255, 255, 255));&quot;&gt;&lt;font style=&quot;font-size: 16px;&quot;&gt;http://localhost:8000/.......&lt;/font&gt;&lt;/span&gt;" style="whiteSpace=wrap;html=1;rounded=0;shadow=0;labelBackgroundColor=none;strokeWidth=1;fillColor=none;fontFamily=Verdana;fontSize=12;align=center;comic=1;rotation=0;" vertex="1" parent="1">
          <mxGeometry x="-405" y="-190" width="290" height="60" as="geometry" />
        </mxCell>
        <mxCell id="_zSwTG5S_GAaZdEpA28d-91" value="&lt;span style=&quot;background-color: transparent; color: light-dark(rgb(0, 0, 0), rgb(255, 255, 255));&quot;&gt;&lt;font style=&quot;font-size: 16px;&quot;&gt;hh:mm, dd,mm,yyyy&lt;/font&gt;&lt;/span&gt;" style="whiteSpace=wrap;html=1;rounded=0;shadow=0;labelBackgroundColor=none;strokeWidth=1;fillColor=none;fontFamily=Verdana;fontSize=12;align=center;comic=1;rotation=0;" vertex="1" parent="1">
          <mxGeometry x="-100" y="-190" width="290" height="60" as="geometry" />
        </mxCell>
        <mxCell id="_zSwTG5S_GAaZdEpA28d-92" value="&lt;span style=&quot;background-color: transparent; color: light-dark(rgb(0, 0, 0), rgb(255, 255, 255));&quot;&gt;&lt;font style=&quot;font-size: 16px;&quot;&gt;N&lt;/font&gt;&lt;/span&gt;" style="whiteSpace=wrap;html=1;rounded=0;shadow=0;labelBackgroundColor=none;strokeWidth=1;fillColor=none;fontFamily=Verdana;fontSize=12;align=center;comic=1;rotation=0;" vertex="1" parent="1">
          <mxGeometry x="260" y="-190" width="100" height="60" as="geometry" />
        </mxCell>
        <mxCell id="_zSwTG5S_GAaZdEpA28d-93" value="&lt;span style=&quot;background-color: transparent; color: light-dark(rgb(0, 0, 0), rgb(255, 255, 255));&quot;&gt;&lt;font style=&quot;font-size: 16px;&quot;&gt;hh:mm, dd,mm,yyyy&lt;/font&gt;&lt;/span&gt;&lt;div&gt;&lt;span style=&quot;font-size: 16px;&quot;&gt;hh:mm, dd,mm,yyyy&lt;/span&gt;&lt;span style=&quot;background-color: transparent; color: light-dark(rgb(0, 0, 0), rgb(255, 255, 255));&quot;&gt;&lt;font style=&quot;font-size: 16px;&quot;&gt;&lt;/font&gt;&lt;/span&gt;&lt;/div&gt;&lt;div&gt;&lt;span style=&quot;font-size: 16px;&quot;&gt;hh:mm, dd,mm,yyyy&lt;/span&gt;&lt;span style=&quot;font-size: 16px;&quot;&gt;&lt;/span&gt;&lt;/div&gt;" style="whiteSpace=wrap;html=1;rounded=0;shadow=0;labelBackgroundColor=none;strokeWidth=1;fillColor=none;fontFamily=Verdana;fontSize=12;align=center;comic=1;rotation=0;" vertex="1" parent="1">
          <mxGeometry x="430" y="-190" width="290" height="60" as="geometry" />
        </mxCell>
      </root>
    </mxGraphModel>
  </diagram>
</mxfile>
